<?xml version="1.0" encoding="UTF-8" standalone="no"?>
<svg
   xmlns:dc="http://purl.org/dc/elements/1.1/"
   xmlns:cc="http://creativecommons.org/ns#"
   xmlns:rdf="http://www.w3.org/1999/02/22-rdf-syntax-ns#"
   xmlns:svg="http://www.w3.org/2000/svg"
   xmlns="http://www.w3.org/2000/svg"
   xmlns:sodipodi="http://sodipodi.sourceforge.net/DTD/sodipodi-0.dtd"
   xmlns:inkscape="http://www.inkscape.org/namespaces/inkscape"
   version="1.1"
   width="29.7002cm"
   height="21.0007cm"
   viewBox="0 0 116930 82680 "
   id="svg5219"
   sodipodi:docname="tetris-pcb-B.Cu.svg"
   inkscape:version="0.92.1 r15371">
  <metadata
     id="metadata5225">
    <rdf:RDF>
      <cc:Work
         rdf:about="">
        <dc:format>image/svg+xml</dc:format>
        <dc:type
           rdf:resource="http://purl.org/dc/dcmitype/StillImage" />
      </cc:Work>
    </rdf:RDF>
  </metadata>
  <defs
     id="defs5223" />
  <sodipodi:namedview
     pagecolor="#ffffff"
     bordercolor="#666666"
     borderopacity="1"
     objecttolerance="10"
     gridtolerance="10"
     guidetolerance="10"
     inkscape:pageopacity="0"
     inkscape:pageshadow="2"
     inkscape:window-width="1366"
     inkscape:window-height="709"
     id="namedview5221"
     showgrid="false"
     inkscape:zoom="0.93006695"
     inkscape:cx="454.4552"
     inkscape:cy="235.5559"
     inkscape:window-x="0"
     inkscape:window-y="31"
     inkscape:window-maximized="1"
     inkscape:current-layer="svg5219" />
  <title
     id="title4875">SVG Picture created as tetris-pcb-B.Cu.svg date 2019/07/27 16:07:55 </title>
  <desc
     id="desc4877">Picture generated by PCBNEW </desc>
  <g
     style="fill:#000000; fill-opacity:1;stroke:#000000; stroke-opacity:1; stroke-linecap:round; stroke-linejoin:round; "
     transform="translate(0 0) scale(1 1)"
     id="g4879" />
  <g
     style="fill:#000000; fill-opacity:0.0;  stroke:#000000; stroke-width:-0.000393701; stroke-opacity:1;  stroke-linecap:round; stroke-linejoin:round;"
     id="g4881" />
  <g
     style="fill:#000000; fill-opacity:0.0;  stroke:#000000; stroke-width:0; stroke-opacity:1;  stroke-linecap:round; stroke-linejoin:round;"
     id="g4893" />
  <g
     style="fill:#000000; fill-opacity:1.0;  stroke:#000000; stroke-width:685.039; stroke-opacity:1;  stroke-linecap:round; stroke-linejoin:round;"
     id="g4899" />
  <g
     style="fill:#000000; fill-opacity:1.0;  stroke:#000000; stroke-width:39.3701; stroke-opacity:1;  stroke-linecap:round; stroke-linejoin:round;"
     id="g4975" />
  <g
     style="fill:#000000; fill-opacity:1.0;  stroke:#000000; stroke-width:39.3701; stroke-opacity:1;  stroke-linecap:round; stroke-linejoin:round;"
     id="g4981" />
  <g
     style="fill:#000000; fill-opacity:1.0;  stroke:#000000; stroke-width:39.3701; stroke-opacity:1;  stroke-linecap:round; stroke-linejoin:round;"
     id="g4987" />
  <g
     style="fill:#000000; fill-opacity:1.0;  stroke:#000000; stroke-width:39.3701; stroke-opacity:1;  stroke-linecap:round; stroke-linejoin:round;"
     id="g4993" />
  <g
     style="fill:#000000; fill-opacity:1.0;  stroke:#000000; stroke-width:39.3701; stroke-opacity:1;  stroke-linecap:round; stroke-linejoin:round;"
     id="g4999" />
  <g
     style="fill:#000000; fill-opacity:1.0;  stroke:#000000; stroke-width:39.3701; stroke-opacity:1;  stroke-linecap:round; stroke-linejoin:round;"
     id="g5005" />
  <g
     style="fill:#000000; fill-opacity:1.0;  stroke:#000000; stroke-width:39.3701; stroke-opacity:1;  stroke-linecap:round; stroke-linejoin:round;"
     id="g5011" />
  <g
     style="fill:#000000; fill-opacity:1.0;  stroke:#000000; stroke-width:39.3701; stroke-opacity:1;  stroke-linecap:round; stroke-linejoin:round;"
     id="g5017" />
  <g
     style="fill:#000000; fill-opacity:1.0;  stroke:#000000; stroke-width:39.3701; stroke-opacity:1;  stroke-linecap:round; stroke-linejoin:round;"
     id="g5023" />
  <g
     style="fill:#000000; fill-opacity:1.0;  stroke:#000000; stroke-width:39.3701; stroke-opacity:1;  stroke-linecap:round; stroke-linejoin:round;"
     id="g5029" />
  <g
     style="fill:#000000; fill-opacity:1.0;  stroke:#000000; stroke-width:39.3701; stroke-opacity:1;  stroke-linecap:round; stroke-linejoin:round;"
     id="g5035" />
  <g
     style="fill:#000000; fill-opacity:1.0;  stroke:#000000; stroke-width:39.3701; stroke-opacity:1;  stroke-linecap:round; stroke-linejoin:round;"
     id="g5041" />
  <g
     style="fill:#000000; fill-opacity:1.0;  stroke:#000000; stroke-width:39.3701; stroke-opacity:1;  stroke-linecap:round; stroke-linejoin:round;"
     id="g5047" />
  <g
     style="fill:#000000; fill-opacity:1.0;  stroke:#000000; stroke-width:39.3701; stroke-opacity:1;  stroke-linecap:round; stroke-linejoin:round;"
     id="g5053" />
  <g
     style="fill:#000000; fill-opacity:1.0;  stroke:#000000; stroke-width:39.3701; stroke-opacity:1;  stroke-linecap:round; stroke-linejoin:round;"
     id="g5059" />
  <g
     style="fill:#000000; fill-opacity:1.0;  stroke:#000000; stroke-width:39.3701; stroke-opacity:1;  stroke-linecap:round; stroke-linejoin:round;"
     id="g5065" />
  <g
     style="fill:#000000; fill-opacity:1.0;  stroke:#000000; stroke-width:196.85; stroke-opacity:1;  stroke-linecap:round; stroke-linejoin:round;"
     id="g5067" />
  <g
     id="g5386"
     transform="translate(-11871.915,4591.9671)"
     inkscape:export-filename="/media/cr0wg4n/Meme/otro.png"
     inkscape:export-xdpi="300"
     inkscape:export-ydpi="300">
    <g
       id="g4891"
       style="fill:#000000;fill-opacity:0;stroke:#000000;stroke-width:118.11000061;stroke-linecap:round;stroke-linejoin:round;stroke-opacity:1">
      <path
         id="path4883"
         d="m 54792,49353 v 956 l 57,112 56,57 112,56 h 225 l 113,-56 56,-57 56,-112 v -956"
         inkscape:connector-curvature="0" />
      <path
         id="path4885"
         d="m 56030,50534 v -1181 l 393,843 394,-843 v 1181"
         inkscape:connector-curvature="0" />
      <path
         id="path4887"
         d="m 57323,50478 169,56 h 281 l 113,-56 56,-57 56,-112 v -113 l -56,-112 -56,-56 -113,-57 -225,-56 -112,-56 -57,-56 -56,-113 v -112 l 56,-113 57,-56 112,-56 h 281 l 169,56"
         inkscape:connector-curvature="0" />
      <path
         id="path4889"
         d="m 58448,50478 169,56 h 281 l 112,-56 57,-57 56,-112 v -113 l -56,-112 -57,-56 -112,-57 -225,-56 -112,-56 -57,-56 -56,-113 v -112 l 56,-113 57,-56 112,-56 h 281 l 169,56"
         inkscape:connector-curvature="0" />
    </g>
    <g
       id="g4897"
       style="fill:#000000;fill-opacity:1;stroke:#000000;stroke-width:0;stroke-linecap:round;stroke-linejoin:round;stroke-opacity:1">
      <polyline
         id="polyline4895"
         points="55176,35067 55166,35068 55157,35071 55148,35074 55139,35078 55131,35083 55123,35089 55116,35095 55109,35102 55104,35110 55099,35118 55094,35127 55091,35136 55089,35146 55087,35155 55087,35165 55087,35834 55087,35844 55089,35853 55091,35863 55094,35872 55099,35881 55104,35889 55109,35897 55116,35904 55123,35910 55131,35916 55139,35921 55148,35925 55157,35928 55166,35931 55176,35932 55185,35933 55674,35933 55683,35932 55693,35931 55702,35928 55711,35925 55720,35921 55728,35916 55736,35910 55743,35904 55750,35897 55755,35889 55760,35881 55765,35872 55768,35863 55770,35853 55772,35844 55772,35834 55772,35165 55772,35155 55770,35146 55768,35136 55765,35127 55760,35118 55755,35110 55750,35102 55743,35095 55736,35089 55728,35083 55720,35078 55711,35074 55702,35071 55693,35068 55683,35067 55674,35066 55185,35066 55176,35067 "
         style="fill-rule:evenodd" />
    </g>
    <g
       id="g4907"
       style="fill:#000000;fill-opacity:0;stroke:#000000;stroke-width:685.03900146;stroke-linecap:round;stroke-linejoin:round;stroke-opacity:1">
      <path
         id="path4901"
         d="m 56430,35590 v -181"
         inkscape:connector-curvature="0" />
      <path
         id="path4903"
         d="m 57430,35590 v -181"
         inkscape:connector-curvature="0" />
      <path
         id="path4905"
         d="m 58430,35590 v -181"
         inkscape:connector-curvature="0" />
    </g>
    <g
       id="g4969"
       style="fill:#000000;fill-opacity:0;stroke:#000000;stroke-width:680;stroke-linecap:round;stroke-linejoin:round;stroke-opacity:1">
      <path
         id="path4909"
         d="m 71210,36529 h -120"
         inkscape:connector-curvature="0" />
      <path
         id="path4911"
         d="m 71210,37529 h -120"
         inkscape:connector-curvature="0" />
      <path
         id="path4913"
         d="m 71210,38529 h -120"
         inkscape:connector-curvature="0" />
      <path
         id="path4915"
         d="m 71210,39529 h -120"
         inkscape:connector-curvature="0" />
      <path
         id="path4917"
         d="m 71210,40529 h -120"
         inkscape:connector-curvature="0" />
      <path
         id="path4919"
         d="m 71210,41529 h -120"
         inkscape:connector-curvature="0" />
      <path
         id="path4921"
         d="m 71210,42529 h -120"
         inkscape:connector-curvature="0" />
      <path
         id="path4923"
         d="m 71210,43529 h -120"
         inkscape:connector-curvature="0" />
      <path
         id="path4925"
         d="m 71210,44529 h -120"
         inkscape:connector-curvature="0" />
      <path
         id="path4927"
         d="m 71210,45529 h -120"
         inkscape:connector-curvature="0" />
      <path
         id="path4929"
         d="m 71210,46529 h -120"
         inkscape:connector-curvature="0" />
      <path
         id="path4931"
         d="m 71210,47529 h -120"
         inkscape:connector-curvature="0" />
      <path
         id="path4933"
         d="m 71210,48529 h -120"
         inkscape:connector-curvature="0" />
      <path
         id="path4935"
         d="m 71210,49529 h -120"
         inkscape:connector-curvature="0" />
      <path
         id="path4937"
         d="m 71210,50529 h -120"
         inkscape:connector-curvature="0" />
      <path
         id="path4939"
         d="m 62210,36529 h -120"
         inkscape:connector-curvature="0" />
      <path
         id="path4941"
         d="m 62210,48529 h -120"
         inkscape:connector-curvature="0" />
      <path
         id="path4943"
         d="m 62210,49529 h -120"
         inkscape:connector-curvature="0" />
      <path
         id="path4945"
         d="m 62210,47529 h -120"
         inkscape:connector-curvature="0" />
      <path
         id="path4947"
         d="m 62210,41529 h -120"
         inkscape:connector-curvature="0" />
      <path
         id="path4949"
         d="m 62210,40529 h -120"
         inkscape:connector-curvature="0" />
      <path
         id="path4951"
         d="m 62210,42529 h -120"
         inkscape:connector-curvature="0" />
      <path
         id="path4953"
         d="m 62210,50529 h -120"
         inkscape:connector-curvature="0" />
      <path
         id="path4955"
         d="m 62210,44529 h -120"
         inkscape:connector-curvature="0" />
      <path
         id="path4957"
         d="m 62210,43529 h -120"
         inkscape:connector-curvature="0" />
      <path
         id="path4959"
         d="m 62210,45529 h -120"
         inkscape:connector-curvature="0" />
      <path
         id="path4961"
         d="m 62210,46529 h -120"
         inkscape:connector-curvature="0" />
      <path
         id="path4963"
         d="m 62210,38529 h -120"
         inkscape:connector-curvature="0" />
      <path
         id="path4965"
         d="m 62210,39529 h -120"
         inkscape:connector-curvature="0" />
      <path
         id="path4967"
         d="m 62210,37529 h -120"
         inkscape:connector-curvature="0" />
    </g>
    <g
       id="g4973"
       style="fill:#000000;fill-opacity:1;stroke:#000000;stroke-width:0;stroke-linecap:round;stroke-linejoin:round;stroke-opacity:1">
      <circle
         id="circle4971"
         r="300"
         cy="42500"
         cx="59430" />
    </g>
    <g
       id="g4979"
       style="fill:#000000;fill-opacity:1;stroke:#000000;stroke-width:0;stroke-linecap:round;stroke-linejoin:round;stroke-opacity:1">
      <circle
         id="circle4977"
         r="300"
         cy="46500"
         cx="59430" />
    </g>
    <g
       id="g4985"
       style="fill:#000000;fill-opacity:1;stroke:#000000;stroke-width:0;stroke-linecap:round;stroke-linejoin:round;stroke-opacity:1">
      <circle
         id="circle4983"
         r="300"
         cy="43500"
         cx="59430" />
    </g>
    <g
       id="g4991"
       style="fill:#000000;fill-opacity:1;stroke:#000000;stroke-width:0;stroke-linecap:round;stroke-linejoin:round;stroke-opacity:1">
      <circle
         id="circle4989"
         r="300"
         cy="44500"
         cx="59430" />
    </g>
    <g
       id="g4997"
       style="fill:#000000;fill-opacity:1;stroke:#000000;stroke-width:0;stroke-linecap:round;stroke-linejoin:round;stroke-opacity:1">
      <circle
         id="circle4995"
         r="300"
         cy="45500"
         cx="59430" />
    </g>
    <g
       id="g5003"
       style="fill:#000000;fill-opacity:1;stroke:#000000;stroke-width:0;stroke-linecap:round;stroke-linejoin:round;stroke-opacity:1">
      <circle
         id="circle5001"
         r="300"
         cy="47500"
         cx="59430" />
    </g>
    <g
       id="g5009"
       style="fill:#000000;fill-opacity:1;stroke:#000000;stroke-width:0;stroke-linecap:round;stroke-linejoin:round;stroke-opacity:1">
      <circle
         id="circle5007"
         r="300"
         cy="42500"
         cx="54430" />
    </g>
    <g
       id="g5015"
       style="fill:#000000;fill-opacity:1;stroke:#000000;stroke-width:0;stroke-linecap:round;stroke-linejoin:round;stroke-opacity:1">
      <circle
         id="circle5013"
         r="300"
         cy="43500"
         cx="54430" />
    </g>
    <g
       id="g5021"
       style="fill:#000000;fill-opacity:1;stroke:#000000;stroke-width:0;stroke-linecap:round;stroke-linejoin:round;stroke-opacity:1">
      <circle
         id="circle5019"
         r="300"
         cy="44500"
         cx="54430" />
    </g>
    <g
       id="g5027"
       style="fill:#000000;fill-opacity:1;stroke:#000000;stroke-width:0;stroke-linecap:round;stroke-linejoin:round;stroke-opacity:1">
      <circle
         id="circle5025"
         r="300"
         cy="45500"
         cx="54430" />
    </g>
    <g
       id="g5033"
       style="fill:#000000;fill-opacity:1;stroke:#000000;stroke-width:0;stroke-linecap:round;stroke-linejoin:round;stroke-opacity:1">
      <circle
         id="circle5031"
         r="300"
         cy="46500"
         cx="54430" />
    </g>
    <g
       id="g5039"
       style="fill:#000000;fill-opacity:1;stroke:#000000;stroke-width:0;stroke-linecap:round;stroke-linejoin:round;stroke-opacity:1">
      <circle
         id="circle5037"
         r="300"
         cy="47500"
         cx="54430" />
    </g>
    <g
       id="g5045"
       style="fill:#000000;fill-opacity:1;stroke:#000000;stroke-width:0;stroke-linecap:round;stroke-linejoin:round;stroke-opacity:1">
      <circle
         id="circle5043"
         r="295.276"
         cy="38500"
         cx="55430" />
    </g>
    <g
       id="g5051"
       style="fill:#000000;fill-opacity:1;stroke:#000000;stroke-width:0;stroke-linecap:round;stroke-linejoin:round;stroke-opacity:1">
      <circle
         id="circle5049"
         r="295.276"
         cy="37500"
         cx="55430" />
    </g>
    <g
       id="g5057"
       style="fill:#000000;fill-opacity:1;stroke:#000000;stroke-width:0;stroke-linecap:round;stroke-linejoin:round;stroke-opacity:1">
      <circle
         id="circle5055"
         r="196.85001"
         cy="45000"
         cx="56430" />
    </g>
    <g
       id="g5063"
       style="fill:#000000;fill-opacity:1;stroke:#000000;stroke-width:0;stroke-linecap:round;stroke-linejoin:round;stroke-opacity:1">
      <circle
         id="circle5061"
         r="196.85001"
         cy="46000"
         cx="56430" />
    </g>
    <g
       id="g5197"
       style="fill:#000000;fill-opacity:0;stroke:#000000;stroke-width:196.8500061;stroke-linecap:round;stroke-linejoin:round;stroke-opacity:1">
      <path
         id="path5069"
         d="m 55430,38500 v 196"
         inkscape:connector-curvature="0" />
      <path
         id="path5071"
         d="m 53930,44000 500,500"
         inkscape:connector-curvature="0" />
      <path
         id="path5073"
         d="m 53430,44000 h 500"
         inkscape:connector-curvature="0" />
      <path
         id="path5075"
         d="m 55430,41000 h -500"
         inkscape:connector-curvature="0" />
      <path
         id="path5077"
         d="m 53430,42500 v 1500"
         inkscape:connector-curvature="0" />
      <path
         id="path5079"
         d="m 54930,41000 -1500,1500"
         inkscape:connector-curvature="0" />
      <path
         id="path5081"
         d="m 65930,53500 2970,-2971"
         inkscape:connector-curvature="0" />
      <path
         id="path5083"
         d="m 60930,53500 h 5000"
         inkscape:connector-curvature="0" />
      <path
         id="path5085"
         d="m 59430,52000 1500,1500"
         inkscape:connector-curvature="0" />
      <path
         id="path5087"
         d="m 68900,50529 h 2250"
         inkscape:connector-curvature="0" />
      <path
         id="path5089"
         d="m 54430,44500 h -500"
         inkscape:connector-curvature="0" />
      <path
         id="path5091"
         d="m 55430,52000 h 4000"
         inkscape:connector-curvature="0" />
      <path
         id="path5093"
         d="m 53930,44500 -500,500"
         inkscape:connector-curvature="0" />
      <path
         id="path5095"
         d="m 53430,45000 v 5000"
         inkscape:connector-curvature="0" />
      <path
         id="path5097"
         d="m 53430,50000 2000,2000"
         inkscape:connector-curvature="0" />
      <path
         id="path5099"
         d="m 55430,38696 v 276"
         inkscape:connector-curvature="0" />
      <path
         id="path5101"
         d="M 55430,41000 V 38696"
         inkscape:connector-curvature="0" />
      <path
         id="path5103"
         d="m 55430,35500 v 2000"
         inkscape:connector-curvature="0" />
      <path
         id="path5105"
         d="m 55430,37500 v 0"
         inkscape:connector-curvature="0" />
      <path
         id="path5107"
         d="m 56430,35500 v 3000"
         inkscape:connector-curvature="0" />
      <path
         id="path5109"
         d="m 56430,38500 -500,500"
         inkscape:connector-curvature="0" />
      <path
         id="path5111"
         d="m 55930,39000 v 3000"
         inkscape:connector-curvature="0" />
      <path
         id="path5113"
         d="m 55430,42000 -500,500"
         inkscape:connector-curvature="0" />
      <path
         id="path5115"
         d="m 55930,42000 h -500"
         inkscape:connector-curvature="0" />
      <path
         id="path5117"
         d="m 54930,42500 h -500"
         inkscape:connector-curvature="0" />
      <path
         id="path5119"
         d="m 55430,47500 1000,-1000"
         inkscape:connector-curvature="0" />
      <path
         id="path5121"
         d="m 56430,46500 v -500"
         inkscape:connector-curvature="0" />
      <path
         id="path5123"
         d="m 57430,35500 v 5500"
         inkscape:connector-curvature="0" />
      <path
         id="path5125"
         d="m 57430,41000 v 500"
         inkscape:connector-curvature="0" />
      <path
         id="path5127"
         d="m 57430,41500 v 500"
         inkscape:connector-curvature="0" />
      <path
         id="path5129"
         d="m 57430,42000 -1000,1000"
         inkscape:connector-curvature="0" />
      <path
         id="path5131"
         d="m 56430,43000 v 2000"
         inkscape:connector-curvature="0" />
      <path
         id="path5133"
         d="m 56430,45000 v 0"
         inkscape:connector-curvature="0" />
      <path
         id="path5135"
         d="m 56430,46000 v 0"
         inkscape:connector-curvature="0" />
      <path
         id="path5137"
         d="M 55430,47500 H 54430"
         inkscape:connector-curvature="0" />
      <path
         id="path5139"
         d="m 67430,48653 v 876"
         inkscape:connector-curvature="0" />
      <path
         id="path5141"
         d="m 70553,45529 -3123,3124"
         inkscape:connector-curvature="0" />
      <path
         id="path5143"
         d="m 71150,45529 h -597"
         inkscape:connector-curvature="0" />
      <path
         id="path5145"
         d="M 71150,49529 H 67430"
         inkscape:connector-curvature="0" />
      <path
         id="path5147"
         d="M 67430,49529 H 62150"
         inkscape:connector-curvature="0" />
      <path
         id="path5149"
         d="M 60753,49529 59723,48500"
         inkscape:connector-curvature="0" />
      <path
         id="path5151"
         d="M 62150,49529 H 60753"
         inkscape:connector-curvature="0" />
      <path
         id="path5153"
         d="m 59723,48500 h -293"
         inkscape:connector-curvature="0" />
      <path
         id="path5155"
         d="M 59430,48500 57930,47000"
         inkscape:connector-curvature="0" />
      <path
         id="path5157"
         d="M 57930,47000 V 45500"
         inkscape:connector-curvature="0" />
      <path
         id="path5159"
         d="M 59430,45500 H 57930"
         inkscape:connector-curvature="0" />
      <path
         id="path5161"
         d="M 60930,35000 H 59930"
         inkscape:connector-curvature="0" />
      <path
         id="path5163"
         d="m 60930,33500 v 1500"
         inkscape:connector-curvature="0" />
      <path
         id="path5165"
         d="M 62930,33500 H 60930"
         inkscape:connector-curvature="0" />
      <path
         id="path5167"
         d="m 62150,42529 h 60"
         inkscape:connector-curvature="0" />
      <path
         id="path5169"
         d="m 59930,35000 -500,500"
         inkscape:connector-curvature="0" />
      <path
         id="path5171"
         d="m 62210,42529 1720,-1719"
         inkscape:connector-curvature="0" />
      <path
         id="path5173"
         d="M 59430,35500 H 58430"
         inkscape:connector-curvature="0" />
      <path
         id="path5175"
         d="M 63930,40810 V 34500"
         inkscape:connector-curvature="0" />
      <path
         id="path5177"
         d="M 63930,34500 62930,33500"
         inkscape:connector-curvature="0" />
      <path
         id="path5179"
         d="M 57930,45500 H 54930"
         inkscape:connector-curvature="0" />
      <path
         id="path5181"
         d="M 62150,41529 H 58459"
         inkscape:connector-curvature="0" />
      <path
         id="path5183"
         d="m 58459,41529 -529,530"
         inkscape:connector-curvature="0" />
      <path
         id="path5185"
         d="m 57930,42059 v 2441"
         inkscape:connector-curvature="0" />
      <path
         id="path5187"
         d="M 59430,44500 H 57930"
         inkscape:connector-curvature="0" />
      <path
         id="path5189"
         d="m 62090,43529 -530,-529"
         inkscape:connector-curvature="0" />
      <path
         id="path5191"
         d="m 62150,43529 h -60"
         inkscape:connector-curvature="0" />
      <path
         id="path5193"
         d="m 59930,43000 -500,-500"
         inkscape:connector-curvature="0" />
      <path
         id="path5195"
         d="M 61560,43000 H 59930"
         inkscape:connector-curvature="0" />
    </g>
    <g
       id="g5201"
       style="fill:#000000;fill-opacity:0;stroke:#000000;stroke-width:98.42520142;stroke-linecap:round;stroke-linejoin:round;stroke-opacity:1">
      <path
         id="path5199"
         d="m 62150,45529 h -60"
         inkscape:connector-curvature="0" />
    </g>
    <g
       id="g5213"
       style="fill:#000000;fill-opacity:0;stroke:#000000;stroke-width:196.8500061;stroke-linecap:round;stroke-linejoin:round;stroke-opacity:1">
      <path
         id="path5203"
         d="m 61553,45529 -970,971"
         inkscape:connector-curvature="0" />
      <path
         id="path5205"
         d="m 62150,45529 h -597"
         inkscape:connector-curvature="0" />
      <path
         id="path5207"
         d="m 60583,46500 v 846"
         inkscape:connector-curvature="0" />
      <path
         id="path5209"
         d="M 60430,47500 H 59430"
         inkscape:connector-curvature="0" />
      <path
         id="path5211"
         d="m 60583,47346 -153,154"
         inkscape:connector-curvature="0" />
    </g>
    <g
       id="g5217"
       style="fill:#000000;fill-opacity:1;stroke:#000000;stroke-width:100;stroke-linecap:round;stroke-linejoin:round;stroke-opacity:1">
      <polyline
         id="polyline5215"
         points="52980,54950 72380,54950 72380,51858 71715,51858 71715,52208 71581,52531 71333,52779 71010,52913 70660,52913 70337,52779 70089,52531 69955,52208 69955,51858 70089,51535 70337,51287 70660,51153 71010,51153 71333,51287 71581,51535 71715,51858 72380,51858 72380,50529 71812,50529 71766,50759 71635,50954 71440,51085 71268,51119 71032,51119 70860,51085 70665,50954 70613,50877 69044,50877 66200,53722 66181,53751 66152,53770 66152,53770 66065,53828 65964,53848 65964,53848 65930,53855 65895,53848 60964,53848 60930,53855 60895,53848 60895,53848 60794,53828 60678,53751 60659,53722 59285,52348 55464,52348 55430,52355 55395,52348 55395,52348 55294,52328 55178,52251 55159,52222 53207,50270 53178,50251 53101,50135 53081,50034 53081,50034 53074,50000 53081,49965 53081,45034 53074,44999 53081,44965 53081,44965 53101,44864 53178,44748 53207,44729 53588,44348 53464,44348 53430,44355 53294,44328 53178,44251 53101,44135 53081,44034 53074,44000 53081,43965 53081,42534 53074,42500 53081,42465 53081,42465 53101,42364 53137,42310 53159,42277 53159,42277 53178,42248 53207,42229 54659,40777 54678,40748 54794,40671 54895,40651 54895,40651 54930,40644 54964,40651 55081,40651 55081,38922 54967,38808 54884,38608 54884,38391 54967,38191 55121,38037 55212,38000 55121,37962 54967,37808 54884,37608 54884,37391 54967,37191 55081,37077 55081,36167 55050,36161 54936,36084 54859,35969 54832,35834 54832,35165 54859,35030 54936,34915 55050,34838 55185,34812 55674,34812 55809,34838 55923,34915 55985,35007 56002,34982 56198,34851 56430,34805 56661,34851 56857,34982 56930,35091 57002,34982 57198,34851 57430,34805 57661,34851 57857,34982 57932,35095 58047,34952 58251,34841 58288,34834 58380,34881 58380,35450 58372,35450 58372,35550 58380,35550 58380,36118 58288,36165 58251,36158 58047,36047 57932,35904 57857,36017 57778,36070 57778,40965 57778,40965 57778,41465 57778,41465 57778,41717 58188,41307 58208,41278 58323,41201 58425,41181 58425,41181 58459,41174 58493,41181 61613,41181 61665,41104 61776,41029 61665,40954 61534,40759 61488,40529 61534,40299 61665,40104 61776,40029 61665,39954 61534,39759 61488,39529 61534,39299 61665,39104 61776,39029 61665,38954 61534,38759 61488,38529 61534,38299 61665,38104 61776,38029 61665,37954 61534,37759 61488,37529 61534,37299 61665,37104 61776,37029 61665,36954 61534,36759 61488,36529 61534,36299 61665,36104 61860,35973 62032,35939 62268,35939 62440,35973 62635,36104 62766,36299 62812,36529 62766,36759 62635,36954 62524,37029 62635,37104 62766,37299 62812,37529 62766,37759 62635,37954 62524,38029 62635,38104 62766,38299 62812,38529 62766,38759 62635,38954 62524,39029 62635,39104 62766,39299 62812,39529 62766,39759 62635,39954 62524,40029 62635,40104 62766,40299 62812,40529 62766,40759 62635,40954 62524,41029 62635,41104 62766,41299 62812,41529 62766,41759 62635,41954 62521,42031 62682,42174 62782,42381 62783,42388 62735,42479 62200,42479 62200,42471 62100,42471 62100,42479 61565,42479 61517,42388 61518,42381 61618,42174 61779,42031 61665,41954 61613,41877 58603,41877 58278,42203 58278,44151 59000,44151 59118,44033 59199,44000 59118,43966 58963,43811 58880,43609 58880,43390 58963,43188 59118,43033 59199,43000 59118,42966 58963,42811 58880,42609 58880,42390 58963,42188 59118,42033 59320,41950 59539,41950 59741,42033 59896,42188 59980,42390 59980,42557 60074,42651 61526,42651 61527,42651 61565,42579 62100,42579 62100,42587 62200,42587 62200,42579 62735,42579 62783,42670 62782,42677 62682,42884 62521,43027 62635,43104 62766,43299 62812,43529 62766,43759 62635,43954 62524,44029 62635,44104 62766,44299 62812,44529 62766,44759 62635,44954 62524,45029 62635,45104 62766,45299 62812,45529 62766,45759 62635,45954 62524,46029 62635,46104 62766,46299 62812,46529 62766,46759 62635,46954 62524,47029 62635,47104 62766,47299 62812,47529 62766,47759 62635,47954 62524,48029 62635,48104 62766,48299 62812,48529 62766,48759 62635,48954 62521,49031 62682,49174 62782,49381 62783,49388 62735,49479 62200,49479 62200,49471 62100,49471 62100,49479 61565,49479 61517,49388 61518,49381 61618,49174 61779,49031 61665,48954 61534,48759 61488,48529 61534,48299 61665,48104 61776,48029 61665,47954 61534,47759 61488,47529 61534,47299 61665,47104 61776,47029 61665,46954 61534,46759 61488,46529 61534,46299 61665,46104 61776,46029 61665,45954 61647,45928 60931,46644 60931,47312 60938,47346 60911,47482 60853,47568 60853,47568 60834,47598 60805,47617 60700,47722 60681,47751 60565,47828 60464,47848 60464,47848 60430,47855 60395,47848 59859,47848 59741,47966 59539,48050 59320,48050 59118,47966 58963,47811 58880,47609 58880,47390 58963,47188 59118,47033 59199,47000 59118,46966 58963,46811 58880,46609 58880,46390 58963,46188 59118,46033 59193,46002 59142,45981 59122,45911 56876,45911 56876,46088 56808,46253 56778,46283 56778,46465 56785,46500 56778,46534 56778,46534 56758,46635 56681,46751 56652,46770 55700,47722 55681,47751 55652,47770 55652,47770 55608,47799 55565,47828 55464,47848 55464,47848 55430,47855 55395,47848 54859,47848 54741,47966 54539,48050 54320,48050 54118,47966 53963,47811 53880,47609 53880,47390 53963,47188 54118,47033 54199,47000 54118,46966 53963,46811 53880,46609 53880,46390 53963,46188 54118,46033 54193,46002 54142,45981 54114,45885 54430,45570 54745,45885 54717,45981 54662,46000 54741,46033 54896,46188 54980,46390 54980,46609 54896,46811 54741,46966 54660,47000 54741,47033 54859,47151 55285,47151 56081,46355 56081,46283 56051,46253 55983,46088 55983,45911 56051,45746 56176,45621 56341,45553 56518,45553 56683,45621 56808,45746 56876,45911 59122,45911 59114,45885 59430,45570 59745,45885 59717,45981 59662,46000 59741,46033 59896,46188 59980,46390 59980,46609 59896,46811 59741,46966 59660,47000 59741,47033 59859,47151 60234,47151 60234,46534 60227,46499 60234,46465 60234,46465 60254,46364 60278,46328 60312,46277 60312,46277 60331,46248 60361,46229 61172,45418 59984,45418 59973,45636 59911,45787 59815,45815 59500,45500 59359,45500 59044,45815 58948,45787 58875,45581 58886,45363 58948,45212 59044,45184 59359,45500 59500,45500 59815,45184 59911,45212 59984,45418 61172,45418 61282,45307 61302,45278 61417,45201 61519,45181 61519,45181 61553,45174 61587,45181 61613,45181 61665,45104 61776,45029 61665,44954 61534,44759 61488,44529 61534,44299 61665,44104 61776,44029 61665,43954 61534,43759 61488,43529 61506,43438 61416,43348 59964,43348 59962,43348 59980,43390 59980,43609 59896,43811 59741,43966 59660,44000 59741,44033 59896,44188 59980,44390 59980,44609 59896,44811 59741,44966 59666,44997 59717,45018 59745,45114 59430,45429 59114,45114 59142,45018 59197,44999 59118,44966 59000,44848 57964,44848 57930,44855 57794,44828 57678,44751 57601,44635 57581,44534 57574,44500 57581,44465 57581,42341 56778,43144 56778,44716 56808,44746 56876,44911 56876,45088 56808,45253 56683,45378 56518,45446 56341,45446 56272,45418 54984,45418 54973,45636 54911,45787 54815,45815 54500,45500 54359,45500 54044,45815 53948,45787 53875,45581 53886,45363 53948,45212 54044,45184 54359,45500 54500,45500 54815,45184 54911,45212 54984,45418 56272,45418 56176,45378 56051,45253 55983,45088 55983,44911 56051,44746 56081,44716 56081,43034 56074,42999 56081,42965 56081,42965 56101,42864 56136,42811 56159,42777 56159,42777 56178,42748 56207,42729 57081,41855 57081,36070 57002,36017 56930,35908 56857,36017 56778,36070 56778,38465 56785,38500 56758,38635 56700,38722 56700,38722 56681,38751 56652,38770 56278,39144 56278,41965 56285,42000 56258,42135 56181,42251 56065,42328 55964,42348 55964,42348 55930,42355 55895,42348 55574,42348 55200,42722 55181,42751 55152,42770 55152,42770 55108,42799 55065,42828 54964,42848 54964,42848 54930,42855 54895,42848 54859,42848 54741,42966 54660,43000 54741,43033 54896,43188 54980,43390 54980,43609 54896,43811 54741,43966 54660,44000 54741,44033 54896,44188 54980,44390 54980,44609 54896,44811 54741,44966 54666,44997 54717,45018 54745,45114 54430,45429 54114,45114 54142,45018 54197,44999 54118,44966 54037,44885 53778,45144 53778,49855 54202,50279 54202,48870 59657,48870 59657,51259 55182,51259 55574,51651 59395,51651 59430,51644 59464,51651 59464,51651 59565,51671 59652,51729 59652,51729 59681,51748 59700,51777 61074,53151 65785,53151 67078,51858 63368,51858 63368,52208 63235,52531 62987,52779 62664,52913 62314,52913 61990,52779 61743,52531 61609,52208 61609,51858 61743,51535 61990,51287 62314,51153 62664,51153 62987,51287 63235,51535 63368,51858 67078,51858 68407,50529 62812,50529 62766,50759 62635,50954 62440,51085 62268,51119 62032,51119 61860,51085 61665,50954 61534,50759 61488,50529 61534,50299 61665,50104 61779,50027 61618,49884 61518,49677 61517,49670 61565,49579 62100,49579 62100,49587 62200,49587 62200,49579 62735,49579 62783,49670 62782,49677 62682,49884 62521,50027 62635,50104 62766,50299 62812,50529 68407,50529 68629,50307 68649,50278 68764,50201 68866,50181 68866,50181 68900,50174 68934,50181 70613,50181 70665,50104 70779,50027 70618,49884 70518,49677 70517,49670 70565,49579 71100,49579 71100,49587 71200,49587 71200,49579 71735,49579 71783,49670 71782,49677 71682,49884 71521,50027 71635,50104 71766,50299 71812,50529 72380,50529 72380,46529 71812,46529 71766,46759 71635,46954 71524,47029 71635,47104 71766,47299 71812,47529 71766,47759 71635,47954 71524,48029 71635,48104 71766,48299 71812,48529 71766,48759 71635,48954 71521,49031 71682,49174 71782,49381 71783,49388 71735,49479 71200,49479 71200,49471 71100,49471 71100,49479 70565,49479 70517,49388 70518,49381 70618,49174 70779,49031 70665,48954 70534,48759 70488,48529 70534,48299 70665,48104 70776,48029 70665,47954 70534,47759 70488,47529 70534,47299 70665,47104 70776,47029 70665,46954 70534,46759 70488,46529 70534,46299 70665,46104 70779,46027 70618,45884 70518,45677 70517,45670 70565,45579 71100,45579 71100,45587 71200,45587 71200,45579 71735,45579 71783,45670 71782,45677 71682,45884 71521,46027 71635,46104 71766,46299 71812,46529 72380,46529 72380,36529 71812,36529 71766,36759 71635,36954 71524,37029 71635,37104 71766,37299 71812,37529 71766,37759 71635,37954 71524,38029 71635,38104 71766,38299 71812,38529 71766,38759 71635,38954 71524,39029 71635,39104 71766,39299 71812,39529 71766,39759 71635,39954 71524,40029 71635,40104 71766,40299 71812,40529 71766,40759 71635,40954 71524,41029 71635,41104 71766,41299 71812,41529 71766,41759 71635,41954 71524,42029 71635,42104 71766,42299 71812,42529 71766,42759 71635,42954 71524,43029 71635,43104 71766,43299 71812,43529 71766,43759 71635,43954 71524,44029 71635,44104 71766,44299 71812,44529 71766,44759 71635,44954 71521,45031 71682,45174 71782,45381 71783,45388 71735,45479 71200,45479 71200,45471 71100,45471 71100,45479 70565,45479 70517,45388 70518,45381 70618,45174 70779,45031 70665,44954 70534,44759 70488,44529 70534,44299 70665,44104 70776,44029 70665,43954 70534,43759 70488,43529 70534,43299 70665,43104 70776,43029 70665,42954 70534,42759 70488,42529 70534,42299 70665,42104 70776,42029 70665,41954 70534,41759 70488,41529 70534,41299 70665,41104 70776,41029 70665,40954 70534,40759 70488,40529 70534,40299 70665,40104 70776,40029 70665,39954 70534,39759 70488,39529 70534,39299 70665,39104 70776,39029 70665,38954 70534,38759 70488,38529 70534,38299 70665,38104 70776,38029 70665,37954 70534,37759 70488,37529 70534,37299 70665,37104 70776,37029 70665,36954 70534,36759 70488,36529 70534,36299 70665,36104 70860,35973 71032,35939 71268,35939 71440,35973 71635,36104 71766,36299 71812,36529 72380,36529 72380,34681 71735,34681 71735,35031 71601,35354 71353,35602 71030,35736 70680,35736 70356,35602 70109,35354 69975,35031 69975,34681 63368,34681 63368,35031 63235,35354 62987,35602 62664,35736 62314,35736 62090,35643 59023,35643 58957,35866 58812,36047 58608,36158 58571,36165 58480,36118 58480,35550 58961,35550 59023,35643 62090,35643 61990,35602 61744,35356 59023,35356 58961,35450 58480,35450 58480,34881 58571,34834 58608,34841 58812,34952 58957,35133 59023,35356 61744,35356 61743,35354 61609,35031 61609,34681 61743,34357 61990,34110 62314,33976 62664,33976 62987,34110 63235,34357 63368,34681 69975,34681 70109,34357 70356,34110 70680,33976 71030,33976 71353,34110 71601,34357 71735,34681 72380,34681 72380,33050 52980,33050 52980,54950 "
         style="fill-rule:evenodd" />
    </g>
  </g>
</svg>
